<svg width="24" height="24" viewBox="0 0 24 24" fill="none" xmlns="http://www.w3.org/2000/svg">
<path d="M2.71777 5.47852C1.59705 5.47852 0.743656 6.58054 1.05273 7.66406C1.85747 10.4884 3.05041 13.2542 4.83105 15.4287C6.61169 17.6033 9.01996 19.1795 12.0996 19.4922C13.1247 19.5962 14.0088 18.7606 14.0088 17.7471V15.7236C14.0088 15.5974 14.095 15.5077 14.1934 15.5049C14.2116 15.5044 14.2261 15.5039 14.2353 15.5039C14.589 15.5039 15.3157 15.947 15.9541 16.6357C16.5925 17.3245 17.157 18.1771 17.4287 18.6494V18.6504C17.7361 19.1838 18.3088 19.5059 18.918 19.5059H21.3545C22.568 19.5068 23.38 18.136 22.7861 17.0742C21.8538 15.4066 19.9937 13.7572 19.0635 12.9346C20.7678 11.063 21.8977 9.02339 22.3984 7.6709C22.7763 6.64904 21.9972 5.49902 20.8984 5.49902H19.1592C18.4031 5.49902 17.6983 5.86739 17.4102 6.45703C16.0565 9.23084 14.85 10.2496 14 10.9834V7.21973C14 6.28076 13.2209 5.50664 12.2852 5.50488L9.23925 5.5C8.26931 5.4988 7.66788 6.69675 8.24902 7.47363L8.83691 8.26074L8.83789 8.2627C8.93865 8.39594 8.99218 8.5556 8.99218 8.71973V8.7207L9.0039 11.8594C7.79243 10.5817 6.47625 7.87528 6.0791 6.66797V6.66699C5.84715 5.96175 5.17987 5.48556 4.44336 5.4834H4.44238L2.71875 5.47852H2.71777ZM2.71777 6.97852L4.43945 6.9834C4.54528 6.98365 4.6231 7.04075 4.65429 7.13574C5.14744 8.63536 6.44312 11.4926 8.08593 13.0928C8.51254 13.5084 9.13868 13.5926 9.62402 13.3955C10.1094 13.1984 10.5049 12.6875 10.5049 12.0879V12.0869L10.4922 8.71973C10.4922 8.22934 10.3316 7.75242 10.0371 7.36133L10.0361 7.35938L9.76758 7.00098L12.2822 7.00488C12.4135 7.00514 12.5 7.09069 12.5 7.21973V11.0215C12.5 12.2389 14.0332 12.9383 14.9551 12.1426H14.9561C15.8011 11.4126 17.2964 10.1099 18.7578 7.11523C18.7917 7.04587 18.7622 6.99902 19.1592 6.99902H20.8984C20.9997 6.99902 21.0293 7.04725 20.9912 7.15039C20.5658 8.29951 19.4804 10.3034 17.8711 12.0371C17.3751 12.5715 17.3953 13.4546 17.9561 13.9512C18.8351 14.7287 20.7537 16.5128 21.4766 17.8057C21.5427 17.9239 21.493 18.006 21.3555 18.0059H18.918C18.8341 18.0059 18.7651 17.9649 18.7285 17.9014C18.4037 17.3366 17.808 16.429 17.0547 15.6162C16.3014 14.8035 15.4047 14.0039 14.2353 14.0039C14.2022 14.0039 14.1751 14.0044 14.1543 14.0049H14.1523H14.1514C13.2207 14.0311 12.5088 14.8209 12.5088 15.7236V17.7471C12.5088 17.9026 12.3889 18.014 12.251 18C9.58912 17.7297 7.58281 16.4222 5.99121 14.4785C4.3996 12.5348 3.26288 9.94756 2.49511 7.25293C2.45219 7.10245 2.54449 6.97852 2.71777 6.97852Z" fill="black"/>
</svg>
