<svg width="12" height="21" viewBox="0 0 12 21" fill="none" xmlns="http://www.w3.org/2000/svg">
<g clip-path="url(#clip0_372_176)">
<path d="M0.2478 1.45692L9.05666 10.4936L0.2478 19.5303C0.0900966 19.6917 0.00180793 19.9085 0.00180793 20.1342C0.00180793 20.3599 0.0900966 20.5766 0.2478 20.7381C0.324397 20.8162 0.415822 20.8784 0.516724 20.9208C0.617624 20.9632 0.725973 20.985 0.835419 20.985C0.944867 20.985 1.05321 20.9632 1.15411 20.9208C1.25502 20.8784 1.34644 20.8162 1.42304 20.7381L10.796 11.1246C10.9606 10.9558 11.0527 10.7294 11.0527 10.4936C11.0527 10.2578 10.9606 10.0314 10.796 9.86258L1.42485 0.249137C1.34819 0.170406 1.25654 0.107831 1.15531 0.0651045C1.05407 0.0223778 0.945301 0.000366211 0.835419 0.000366211C0.725536 0.000366211 0.616767 0.0223778 0.515531 0.0651045C0.414297 0.107831 0.322646 0.170406 0.245991 0.249137C0.0882879 0.41059 0 0.627335 0 0.853027C0 1.07872 0.0882879 1.29546 0.245991 1.45692H0.2478Z" fill="#333333"/>
</g>
<defs>
<clipPath id="clip0_372_176">
<rect width="11.0526" height="21" fill="white"/>
</clipPath>
</defs>
</svg>
