<svg width="40" height="40" viewBox="0 0 40 40" fill="none" xmlns="http://www.w3.org/2000/svg">
<g clip-path="url(#clip0_210_10)">
<path d="M20 0C8.972 0 0 8.972 0 20C0 31.028 8.972 40 20 40C31.028 40 40 31.028 40 20C40 8.972 31.028 0 20 0ZM20 38.6667C9.70733 38.6667 1.33333 30.2927 1.33333 20C1.33333 9.70733 9.70733 1.33333 20 1.33333C30.2927 1.33333 38.6667 9.70733 38.6667 20C38.6667 30.2927 30.2927 38.6667 20 38.6667Z" fill="black"/>
<path d="M19.9998 4C19.6318 4 19.3332 4.298 19.3332 4.66667V20H9.33317C8.96517 20 8.6665 20.298 8.6665 20.6667C8.6665 21.0353 8.96517 21.3333 9.33317 21.3333H19.9998C20.3678 21.3333 20.6665 21.0353 20.6665 20.6667V4.66667C20.6665 4.298 20.3678 4 19.9998 4Z" fill="black"/>
</g>
<defs>
<clipPath id="clip0_210_10">
<rect width="40" height="40" fill="white"/>
</clipPath>
</defs>
</svg>
